<svg width="36" height="43" viewBox="0 0 36 43" fill="none" xmlns="http://www.w3.org/2000/svg">
<mask id="path-1-inside-1_56_105" fill="white">
<path d="M17.6689 19C25.6902 19 32.5497 23.9709 35.3369 31C32.5497 38.0291 25.6902 43 17.6689 43C9.64755 43 2.78716 38.0292 0 31C2.78716 23.9708 9.64755 19 17.6689 19Z"/>
</mask>
<path d="M35.3369 31L40.9144 33.2117L41.7914 31L40.9144 28.7883L35.3369 31ZM0 31L-5.57755 28.7884L-6.45445 31L-5.57755 33.2116L0 31ZM17.6689 19V25C23.1472 25 27.8479 28.3912 29.7594 33.2117L35.3369 31L40.9144 28.7883C37.2514 19.5507 28.2332 13 17.6689 13V19ZM35.3369 31L29.7594 28.7883C27.8479 33.6088 23.1472 37 17.6689 37V43V49C28.2332 49 37.2514 42.4493 40.9144 33.2117L35.3369 31ZM17.6689 43V37C12.1901 37 7.48877 33.6086 5.57755 28.7884L0 31L-5.57755 33.2116C-1.91445 42.4499 7.105 49 17.6689 49V43ZM0 31L5.57755 33.2116C7.48877 28.3914 12.1901 25 17.6689 25V19V13C7.105 13 -1.91445 19.5501 -5.57755 28.7884L0 31Z" fill="#46029E" mask="url(#path-1-inside-1_56_105)"/>
<circle cx="21" cy="31" r="3" fill="#46029E"/>
<path d="M11.4434 6.46777L17.5 0.607422L23.5557 6.46777L34.0459 0.0478516L32.8688 19.9248L29.5 20.9922L28.3799 23.4648H6.54102L6.08789 20.9922L2.23438 20.0195L0.875 0L11.4434 6.46777ZM12.0742 12.1748L6 8.45801L6.54102 16.4248L10.5 17.4248L6.54102 18.9248H28.3799L29 8.45801L22.9258 12.1748L17.5 6.9248L12.0742 12.1748Z" fill="#46029E"/>
</svg>
